<svg width="38" height="38" viewBox="0 0 38 38" fill="none" xmlns="http://www.w3.org/2000/svg">
<g clip-path="url(#clip0_150_276)">
<path d="M13.2375 1.24984C9.44071 2.56698 6.16637 5.06696 3.89541 8.38256C1.62446 11.6982 0.476602 15.6546 0.620441 19.6708C0.764279 23.687 2.19223 27.5512 4.69456 30.6959C7.19688 33.8405 10.6417 36.0999 14.523 37.142C17.6696 37.954 20.9664 37.9896 24.1298 37.2459C26.9956 36.6022 29.6451 35.2253 31.8189 33.25C34.0813 31.1313 35.7235 28.4361 36.5689 25.4541C37.4878 22.2112 37.6513 18.8009 37.0469 15.485H19.3769V22.8148H29.6102C29.4056 23.9839 28.9674 25.0997 28.3216 26.0954C27.6758 27.0911 26.8357 27.9463 25.8517 28.6098C24.6021 29.4364 23.1935 29.9926 21.7163 30.2427C20.2347 30.5181 18.715 30.5181 17.2334 30.2427C15.7318 29.9322 14.3113 29.3124 13.0623 28.4228C11.0559 27.0025 9.54935 24.9848 8.75766 22.6575C7.95258 20.2866 7.95258 17.7163 8.75766 15.3455C9.32121 13.6836 10.2528 12.1705 11.483 10.9191C12.8907 9.46065 14.673 8.41817 16.6342 7.906C18.5954 7.39383 20.6598 7.43176 22.6009 8.01562C24.1173 8.48109 25.5039 9.29437 26.6503 10.3906C27.8042 9.2427 28.956 8.09182 30.1059 6.93796C30.6997 6.31749 31.3469 5.72671 31.9317 5.0914C30.1818 3.46297 28.1278 2.19585 25.8873 1.36265C21.8074 -0.118786 17.3432 -0.158598 13.2375 1.24984Z" fill="white"/>
<path d="M13.2376 1.24985C17.343 -0.159547 21.8072 -0.120783 25.8875 1.35969C28.1283 2.19855 30.1814 3.47177 31.9289 5.10625C31.3351 5.74157 30.7087 6.33532 30.1031 6.95282C28.9512 8.10271 27.8003 9.24865 26.6504 10.3906C25.504 9.29438 24.1174 8.4811 22.6011 8.01563C20.6606 7.42972 18.5963 7.3896 16.6345 7.89968C14.6728 8.40975 12.8894 9.45031 11.4801 10.9072C10.25 12.1586 9.31835 13.6717 8.7548 15.3336L2.60059 10.5688C4.80342 6.20042 8.6175 2.85898 13.2376 1.24985Z" fill="#E33629"/>
<path d="M0.967726 15.2891C1.29851 13.6497 1.84767 12.0621 2.60054 10.5688L8.75476 15.3455C7.94968 17.7163 7.94968 20.2866 8.75476 22.6575C6.70434 24.2408 4.65293 25.8321 2.60054 27.4313C0.715829 23.6797 0.141026 19.4052 0.967726 15.2891Z" fill="#F8BD00"/>
<path d="M19.3768 15.482H37.0468C37.6512 18.7979 37.4877 22.2082 36.5688 25.4511C35.7234 28.4331 34.0813 31.1284 31.8188 33.247C29.8327 31.6973 27.8377 30.1595 25.8517 28.6098C26.8363 27.9457 27.6767 27.0895 28.3226 26.0927C28.9684 25.0959 29.4063 23.979 29.6101 22.8089H19.3768C19.3738 20.3686 19.3768 17.9253 19.3768 15.482Z" fill="#587DBD"/>
</g>
<defs>
<clipPath id="clip0_150_276">
<rect width="38" height="38" fill="white"/>
</clipPath>
</defs>
</svg>
