<svg width="11" height="14" viewBox="0 0 11 14" fill="none" xmlns="http://www.w3.org/2000/svg">
<path opacity="0.65" d="M9.52006 4.94063H8.88006V3.66063C8.88006 1.89423 7.44646 0.460632 5.68006 0.460632C3.91366 0.460632 2.48006 1.89423 2.48006 3.66063V4.94063H1.84006C1.13606 4.94063 0.560059 5.51663 0.560059 6.22063V12.6206C0.560059 13.3246 1.13606 13.9006 1.84006 13.9006H9.52006C10.2241 13.9006 10.8001 13.3246 10.8001 12.6206V6.22063C10.8001 5.51663 10.2241 4.94063 9.52006 4.94063ZM5.68006 10.7006C4.97606 10.7006 4.40006 10.1246 4.40006 9.42063C4.40006 8.71663 4.97606 8.14063 5.68006 8.14063C6.38406 8.14063 6.96006 8.71663 6.96006 9.42063C6.96006 10.1246 6.38406 10.7006 5.68006 10.7006ZM7.66406 4.94063H3.69606V3.66063C3.69606 2.56623 4.58566 1.67663 5.68006 1.67663C6.77446 1.67663 7.66406 2.56623 7.66406 3.66063V4.94063Z" fill="#49454F"/>
</svg>
