<svg width="4" height="17" viewBox="0 0 4 17" fill="none" xmlns="http://www.w3.org/2000/svg">
<path d="M2 4.4996C3.1 4.4996 4 3.5996 4 2.4996C4 1.3996 3.1 0.499603 2 0.499603C0.9 0.499603 0 1.3996 0 2.4996C0 3.5996 0.9 4.4996 2 4.4996ZM2 6.4996C0.9 6.4996 0 7.3996 0 8.4996C0 9.5996 0.9 10.4996 2 10.4996C3.1 10.4996 4 9.5996 4 8.4996C4 7.3996 3.1 6.4996 2 6.4996ZM2 12.4996C0.9 12.4996 0 13.3996 0 14.4996C0 15.5996 0.9 16.4996 2 16.4996C3.1 16.4996 4 15.5996 4 14.4996C4 13.3996 3.1 12.4996 2 12.4996Z" fill="#79747E"/>
</svg>
