<svg width="38" height="38" viewBox="0 0 38 38" fill="none" xmlns="http://www.w3.org/2000/svg">
<path d="M13.2375 1.24984C9.44071 2.56698 6.16637 5.06696 3.89541 8.38256C1.62446 11.6982 0.476602 15.6546 0.620441 19.6708C0.764279 23.687 2.19223 27.5512 4.69456 30.6959C7.19688 33.8405 10.6417 36.0999 14.523 37.142C17.6696 37.954 20.9664 37.9896 24.1298 37.2459C26.9956 36.6022 29.6451 35.2253 31.8189 33.25C34.0813 31.1313 35.7235 28.4361 36.5689 25.4541C37.4878 22.2112 37.6513 18.8009 37.0469 15.485H19.3769V22.8148H29.6102C29.4056 23.9839 28.9674 25.0997 28.3216 26.0954C27.6758 27.0911 26.8357 27.9463 25.8517 28.6098C24.6021 29.4364 23.1935 29.9926 21.7163 30.2427C20.2347 30.5181 18.715 30.5181 17.2334 30.2427C15.7318 29.9322 14.3113 29.3124 13.0623 28.4228C11.0559 27.0025 9.54935 24.9848 8.75766 22.6575C7.95258 20.2866 7.95258 17.7163 8.75766 15.3455C9.32121 13.6836 10.2528 12.1705 11.483 10.9191C12.8907 9.46065 14.673 8.41817 16.6342 7.906C18.5954 7.39383 20.6598 7.43176 22.6009 8.01562C24.1173 8.48109 25.5039 9.29437 26.6503 10.3906C27.8042 9.2427 28.956 8.09182 30.1059 6.93796C30.6997 6.31749 31.3469 5.72671 31.9317 5.0914C30.1818 3.46297 28.1278 2.19585 25.8873 1.36265C21.8074 -0.118786 17.3432 -0.158598 13.2375 1.24984Z" fill="white"/>
</svg>
