<svg width="108" height="132" viewBox="0 0 108 132" fill="none" xmlns="http://www.w3.org/2000/svg">
<path d="M27.2373 97.5917L32.0489 124.88C32.4135 126.947 33.5846 128.786 35.3046 129.99C37.0245 131.194 39.1524 131.666 41.2202 131.301C43.288 130.937 45.1262 129.766 46.3305 128.046C47.5349 126.326 48.0066 124.198 47.642 122.13L42.8304 94.8422L27.2373 97.5917ZM4.30915 81.5372L0.18493 58.1476C-0.361975 55.0459 0.345647 51.8541 2.15213 49.2741C3.95861 46.6942 6.71597 44.9376 9.81763 44.3907L33.2072 40.2665L41.4557 87.0457L18.0661 91.1699C14.9644 91.7168 11.7725 91.0092 9.19261 89.2027C6.61269 87.3962 4.85606 84.6389 4.30915 81.5372ZM107.5 51.2834L106.813 47.3851C106.266 44.2835 104.509 41.5261 101.929 39.7196C99.3495 37.9132 96.1577 37.2055 93.056 37.7524L97.8676 65.0403C100.969 64.4934 103.727 62.7368 105.533 60.1569C107.34 57.5769 108.047 54.3851 107.5 51.2834ZM49.9396 89.5692L39.629 31.0952L72.379 1.11521C72.9023 0.636057 73.5447 0.306357 74.2391 0.160613C74.9335 0.014868 75.6543 0.0584397 76.3261 0.286765C76.9978 0.515091 77.5959 0.919777 78.0577 1.45848C78.5194 1.99717 78.8279 2.65008 78.9508 3.34886L96.3797 102.193C96.5032 102.892 96.4367 103.611 96.187 104.275C95.9374 104.939 95.5138 105.524 94.9606 105.969C94.4074 106.413 93.745 106.7 93.0427 106.801C92.3403 106.901 91.6238 106.811 90.9682 106.54L49.9396 89.5692Z" fill="white"/>
</svg>
