<svg width="27" height="56" viewBox="0 0 27 56" fill="none" xmlns="http://www.w3.org/2000/svg">
<path fill-rule="evenodd" clip-rule="evenodd" d="M17.3156 1.93228C17.6749 2.30808 17.9566 2.75097 18.1447 3.23566C18.3328 3.72036 18.4236 4.23735 18.4118 4.75713C18.4001 5.2769 18.2861 5.78927 18.0763 6.26498C17.8665 6.74068 17.565 7.1704 17.1892 7.52959L6.86909 17.3882C6.49326 17.7475 6.05035 18.0291 5.56567 18.2172C5.08098 18.4052 4.564 18.496 4.04425 18.4843C3.52449 18.4725 3.01214 18.3585 2.53644 18.1488C2.06074 17.939 1.63101 17.6376 1.27178 17.2618C0.912561 16.886 0.630887 16.4431 0.442832 15.9584C0.254777 15.4737 0.164019 14.9567 0.17576 14.437C0.1875 13.9172 0.301505 13.4048 0.511255 12.9291C0.721005 12.4534 1.0224 12.0237 1.39822 11.6645L11.7183 1.80585C12.0941 1.44656 12.537 1.16483 13.0217 0.976739C13.5064 0.788647 14.0234 0.697882 14.5431 0.709623C15.0629 0.721364 15.5753 0.835383 16.051 1.04517C16.5267 1.25496 16.9564 1.5564 17.3156 1.93228ZM2.98487 30.8068C2.80256 29.7729 3.03843 28.709 3.6406 27.849C4.24276 26.989 5.16188 26.4035 6.19577 26.2212L21.7888 23.4717C22.8227 23.2894 23.8867 23.5253 24.7467 24.1274C25.6066 24.7296 26.1922 25.6487 26.3745 26.6826C26.5568 27.7165 26.3209 28.7804 25.7188 29.6404C25.1166 30.5004 24.1975 31.0859 23.1636 31.2682L7.57051 34.0177C6.53662 34.2 5.47266 33.9641 4.61268 33.362C3.75271 32.7598 3.16717 31.8407 2.98487 30.8068ZM6.00776 44.1209C6.21673 43.6448 6.51743 43.2146 6.89269 42.8547C7.26795 42.4949 7.71044 42.2125 8.19486 42.0237C8.67927 41.8349 9.19613 41.7434 9.71592 41.7543C10.2357 41.7653 10.7483 41.8786 11.2243 42.0877L24.2938 47.8221C24.7698 48.0311 25.2 48.3318 25.5598 48.7071C25.9196 49.0824 26.202 49.5249 26.3908 50.0092C26.5796 50.4936 26.6711 51.0105 26.6602 51.5303C26.6492 52.05 26.536 52.5626 26.327 53.0386C26.118 53.5146 25.8173 53.9448 25.442 54.3046C25.0667 54.6644 24.6243 54.9468 24.1399 55.1356C23.6555 55.3244 23.1386 55.4159 22.6188 55.405C22.0991 55.394 21.5865 55.2808 21.1105 55.0718L8.04097 49.3374C7.5649 49.1284 7.13467 48.8277 6.77483 48.4524C6.415 48.0772 6.13261 47.6347 5.9438 47.1503C5.755 46.6659 5.66347 46.149 5.67445 45.6292C5.68542 45.1094 5.79868 44.5969 6.00776 44.1209Z" fill="white"/>
</svg>
