<svg width="38" height="41" viewBox="0 0 38 41" fill="none" xmlns="http://www.w3.org/2000/svg">
<path d="M34.7681 35.8726C32.8242 38.4144 30.7633 40.8948 27.625 40.9358C24.4868 40.9973 23.4797 39.3164 19.9199 39.3164C16.3367 39.3164 15.236 40.8948 12.2616 40.9973C9.19365 41.0998 6.87509 38.2915 4.90783 35.8111C0.903044 30.748 -2.16495 21.4211 1.95693 15.1485C3.99446 12.0327 7.64794 10.0648 11.6059 10.0033C14.6036 9.96234 17.4608 11.7867 19.311 11.7867C21.1377 11.7867 24.6039 9.59336 28.2339 9.92134C29.7562 9.98284 34.0186 10.4543 36.7588 13.9801C36.548 14.1031 31.6767 16.6039 31.7235 21.7901C31.7938 27.9806 37.9297 30.051 38 30.0715C37.9297 30.215 37.0164 33.0233 34.7681 35.8726ZM21.3954 3.0748C23.105 1.37341 25.9388 0.0819945 28.2808 0C28.5852 2.39834 27.4845 4.81718 25.8451 6.53907C24.2292 8.28145 21.5593 9.63436 18.9363 9.44987C18.585 7.09253 19.8965 4.63269 21.3954 3.0748Z" fill="black"/>
</svg>
