<svg width="30" height="16" viewBox="0 0 30 16" fill="none" xmlns="http://www.w3.org/2000/svg">
<path d="M11.2376 1.24985C15.343 -0.159547 19.8072 -0.120783 23.8875 1.35969C26.1283 2.19855 28.1814 3.47177 29.9289 5.10625C29.3351 5.74157 28.7087 6.33532 28.1031 6.95282C26.9512 8.10271 25.8003 9.24865 24.6504 10.3906C23.504 9.29438 22.1174 8.4811 20.6011 8.01563C18.6606 7.42972 16.5963 7.3896 14.6345 7.89968C12.6728 8.40975 10.8894 9.45031 9.48012 10.9072C8.24997 12.1586 7.31835 13.6717 6.7548 15.3336L0.600586 10.5688C2.80342 6.20042 6.6175 2.85898 11.2376 1.24985Z" fill="#E33629"/>
</svg>
